<svg xmlns="http://www.w3.org/2000/svg" width="903.8" height="509.1" data-name="Layer 1" viewBox="0 0 903.8 509.1">
  <path fill="#f1f1f1" d="m68 508.9-1-1.8c12.8-6.9 28.7-15.4 37-29.5a53.2 53.2 0 0 0 .4-49.2c-6.7-14-19-26.6-35.6-36.4-3.2-1.9-6.7-3.7-10-5.5a110 110 0 0 1-23.2-14.9c-9.4-8.6-16.6-23-11.2-35.9A23.9 23.9 0 0 1 45 321.3l.2 2a21.9 21.9 0 0 0-19 13.2c-5 12 1.8 25.5 10.8 33.7 6.6 6 14.8 10.4 22.7 14.6a267 267 0 0 1 10.1 5.5c17 10 29.6 22.8 36.4 37.2 8.2 17 8 36.6-.5 51C97 493.2 81 502 68 509Z"/>
  <ellipse cx="57.7" cy="323.3" fill="#f1f1f1" rx="17.5" ry="8.5"/>
  <ellipse cx="71.7" cy="379.3" fill="#f1f1f1" rx="17.5" ry="8.5"/>
  <ellipse cx="39.7" cy="388.3" fill="#f1f1f1" rx="17.5" ry="8.5"/>
  <ellipse cx="89.7" cy="435.3" fill="#f1f1f1" rx="17.5" ry="8.5"/>
  <ellipse cx="124.7" cy="435.3" fill="#f1f1f1" rx="17.5" ry="8.5"/>
  <path fill="#e6e6e6" d="M341 15.4h562.8v267.1H341z" data-name="Rectangle 62"/>
  <path fill="#fff" d="M357.1 38.3h530.6v222.8H357.1z" data-name="Rectangle 75"/>
  <path fill="#004aad" d="M340.8 0h562.8v23.9H340.8z" data-name="Rectangle 80"/>
  <circle cx="358.5" cy="11.1" r="4.4" fill="#fff" data-name="Ellipse 90"/>
  <circle cx="375.4" cy="11.1" r="4.4" fill="#fff" data-name="Ellipse 91"/>
  <circle cx="392.2" cy="11.1" r="4.4" fill="#fff" data-name="Ellipse 92"/>
  <path fill="#e6e6e6" d="M594.4 91.2a2.1 2.1 0 0 0 0 4.3h117.8a2.1 2.1 0 0 0 0-4.3Z" data-name="Path 142"/>
  <path fill="#e6e6e6" d="M594.4 104a2.1 2.1 0 0 0 0 4.4h60.2a2.1 2.1 0 0 0 0-4.3Z" data-name="Path 143"/>
  <path fill="#e6e6e6" d="M591.5 166.4a2.1 2.1 0 0 0 0 4.3h220.9a2.1 2.1 0 0 0 0-4.3Z" data-name="Path 142"/>
  <path fill="#e6e6e6" d="M591.5 179.3a2.1 2.1 0 0 0 0 4.3h163.2a2.1 2.1 0 0 0 0-4.3Z" data-name="Path 143"/>
  <path fill="#e6e6e6" d="M591.5 192a2.1 2.1 0 0 0 0 4.2h220.9a2.1 2.1 0 0 0 0-4.3Z" data-name="Path 142"/>
  <path fill="#e6e6e6" d="M591.5 204.8a2.1 2.1 0 0 0 0 4.3h163.2a2.1 2.1 0 0 0 0-4.3Z" data-name="Path 143"/>
  <circle cx="476" cy="156.5" r="18.7" fill="#a0616a"/>
  <path fill="#2f2e41" d="M470 141.5s8.8 2.3 13.3 3.3 4-1.7 4-1.7 6 .7 5.7.1 2.5-3.9-.8-7.6-2.3-6.6-2.3-6.6H487l-.7-1h-4.4s-4.8-4.3-13.4-3-18.7 4.5-19.6 9.7l-.5 2.2c-2.3 10 2.6 19.2 7.8 28 1.3 2.1 7.4 6.8 7.2 3.6s-5.5-10.5-1.7-11 10-10 8.4-16Z"/>
  <path fill="#004aad" d="M465.4 216.9a65.4 65.4 0 0 1-10.7-1.8l.2-3.7 1.6-29.6v-.3h33l5.1 27.3.7 3.7-4.1 1.5-6 1.6a68.6 68.6 0 0 1-8 1.2 62 62 0 0 1-6.4.3c-1.8 0-3.6 0-5.4-.2Z"/>
  <path fill="#2f2e41" d="m444.2 211.6-4-1.9-.5-.3-1.2-.6-1.5-.8-1.4-.9c-1.7-1-3.3-2.1-4.9-3.3l-.7-.6-.3-4.4.4-.2 26.4-16.8.4-.3h3.7v14a44 44 0 0 1 4.5 17.7l.3 3.7a65.4 65.4 0 0 1-10.7-1.8l-1.1-.2a62.7 62.7 0 0 1-6.6-2.1l-1.9-.8-.9-.4Z"/>
  <path fill="#2f2e41" d="m438.5 208.8-1.5-.8-1.4-.9c-1.7-1-3.3-2.1-4.9-3.3l-.7-.6-.4-.3c-1-.7-2-1.5-2.8-2.3l-.2-.1a10.4 10.4 0 0 1 3-1.7l1.2.4 7.6 2.3v3ZM503 208.9l-1.3.7-.3.1-1.8 1h-.1a67.4 67.4 0 0 1-8.3 3.3l-6 1.6a12.5 12.5 0 0 1 .5-3.7v-.2l1.3-21.1-1.7-9 5-.8 27.5 14.8s-3 3-15.5 9.5c-1.1.6.5 2.5.8 3.8Z"/>
  <path fill="#3f3d56" d="M476.8 213.2a65.1 65.1 0 0 1-11.7 0l.3 3.7 5.4.2a62 62 0 0 0 6.3-.3 68.6 68.6 0 0 0 8.1-1.2 12.5 12.5 0 0 1 .5-3.7v-.2a63 63 0 0 1-8.9 1.5Zm57.3-85a67 67 0 1 0-115.8 63.6l2 2.2v.2a63.8 63.8 0 0 0 5 5l1.3 1.3h.2c.9.9 1.8 1.7 2.8 2.4l.4.3.7.6 4.8 3.3 1.5.9 1.5.8 1.2.6.5.3 4 2 .9.3 2 .8a62.7 62.7 0 0 0 6.5 2c.3.2.7.3 1 .3a65.4 65.4 0 0 0 10.8 1.8l5.4.2a62 62 0 0 0 6.3-.3 68.6 68.6 0 0 0 8.1-1.2l6-1.6a64.2 64.2 0 0 0 8.3-3.3h.1l1.8-1 .3-.1 1.4-.7a70.3 70.3 0 0 0 7.7-5 4.7 4.7 0 0 0 .5-.4c1.4-1 2.8-2.2 4.1-3.4a67 67 0 0 0 18.7-72Zm-19.8 68a64.8 64.8 0 0 1-5.2 4.4 22.6 22.6 0 0 1-2.4 1.7l-1 .7-.2.1-.7.5-2.5 1.5-.6.3-.3.2-1.4.7-.2.1-1 .5-.8.4a67.3 67.3 0 0 1-7 2.9l-1 .3c-1.4.4-2.8.9-4.3 1.2a63 63 0 0 1-8.9 1.5 65.1 65.1 0 0 1-11.7 0 62.4 62.4 0 0 1-10.2-1.8h-.4a58.1 58.1 0 0 1-8-2.8l-.4-.2-.4-.1-.5-.2-3.3-1.6-.5-.3a45.9 45.9 0 0 1-5-3l-.3-.1-2.6-1.8-1.7-1.3a19 19 0 0 1-1-.8l-.7-.6-1-.8-1.3-1.2a60.2 60.2 0 0 1-4.8-5 32 32 0 0 1-1.5-1.8 3.6 3.6 0 0 1-.3-.3 63.3 63.3 0 1 1 93 6.7Z"/>
  <path fill="#a0616a" d="M163.4 496.7h12.3l5.8-47.3h-18.1v47.3z"/>
  <path fill="#2f2e41" d="M160.3 492.7h24.2a15.4 15.4 0 0 1 15.3 15.4v.5h-39.5Z"/>
  <path fill="#a0616a" d="M209.4 496.7h12.3l5.8-47.3h-18.1v47.3z"/>
  <path fill="#2f2e41" d="M206.3 492.7h24.2a15.4 15.4 0 0 1 15.3 15.4v.5h-39.5Z"/>
  <path fill="#9e616a" d="M126.2 309.8a10 10 0 0 0-1.8-15.3l8.5-34.7-17.5 6.3-5.4 32a10.1 10.1 0 0 0 16.2 11.7ZM256.4 306.8a10 10 0 0 1 1.9-15.3l-8.6-34.7 17.5 6.3 5.4 32a10.1 10.1 0 0 1-16.2 11.7Z"/>
  <path fill="#2f2e41" d="m142.4 285.5 17 199.1 24.8-2.3 10-153.8 8.8 60.9 1.8 96.7 22.5-1.5 12.5-104.1-3.1-100.8-85.4-8.6-8.9 14.4z"/>
  <circle cx="189.1" cy="78.6" r="25.8" fill="#a0616a"/>
  <path fill="#2f2e41" d="M181 58s12 3.2 18.2 4.5 5.6-2.4 5.6-2.4 8.2 1 7.7.2 3.5-5.4-1-10.5-3.3-9-3.3-9h-3.8l-1.1-1.5h-6s-6.7-5.9-18.5-4.2-25.8 6.3-27 13.4l-.7 3.2c-3.3 13.6 3.6 26.4 10.7 38.4 1.8 3 10.2 9.5 10 5s-7.6-14.4-2.5-15 14-13.8 11.6-22.1Z"/>
  <path fill="#004aad" d="M162.3 113.2h45.4l32.1 169.6s-28 2.3-44 8.3-42.6-13.7-42.6-13.7Z"/>
  <path fill="#2f2e41" d="M168 132.3v-19.1h-5.2L125.2 137l8.2 130.9s9.6 43.7 24.3 43.2 25.9-156 10.2-178.8Z"/>
  <path fill="#2f2e41" d="m137.3 140.6-12-3.6s-9 2.6-9 11.6-7.7 137-7.7 137l24.5 2 5.2-65ZM204.3 125.6l-2.4-12.4 7-1 25 10s22.4 164.4 12.4 169.4-16.7 1.2-16.7 1.2-33-121.4-27.1-137.8Z"/>
  <path fill="#2f2e41" d="m216.3 124.6 4.3-1.8s12.5-6.2 19.6 6.3 32.1 152.5 32.1 152.5l-20.6 4-15.3-50.5Z"/>
  <path fill="#cacaca" d="M382 509.1H1a1 1 0 1 1 0-2h381a1 1 0 0 1 0 2Z"/>
</svg>