<svg xmlns="http://www.w3.org/2000/svg" width="641" height="413" fill="none" viewBox="0 0 641 413">
  <g clip-path="url(#a)">
    <path fill="#3F3D56" d="M305.9 182.1a4.5 4.5 0 0 0 3.3-1.4l49.6-54.2a6 6 0 0 1 4.4-2h262.3a15 15 0 0 0 15-15V15a15 15 0 0 0-15-15H285.7a15 15 0 0 0-15 15v94.6a15 15 0 0 0 15 15h9.7a6 6 0 0 1 6 6v47a4.5 4.5 0 0 0 4.5 4.5ZM625.5 2a13 13 0 0 1 13 13v94.6a13 13 0 0 1-13 13H363.2a8 8 0 0 0-5.9 2.6l-49.6 54.1a2.5 2.5 0 0 1-3.9-.3c-.3-.4-.4-.9-.4-1.4v-47a8 8 0 0 0-8-8h-9.7a13 13 0 0 1-13-13V15a13 13 0 0 1 13-13h339.8Z"/>
    <path fill="#3F3D56" d="M603.7 41.7a13.1 13.1 0 1 1 0-26.3 13.1 13.1 0 0 1 0 26.3Z"/>
    <path fill="#004AAD" d="M301 101.3h309.1a7 7 0 0 0 0-14h-309a7 7 0 0 0 0 14ZM401.8 71.5H610a7 7 0 1 0 0-14H401.8a7 7 0 1 0 0 14Z"/>
    <path fill="#FFB8B8" d="M301.2 200.1a10 10 0 0 0-13.6-7.3l-23.5-27-5 18 23.1 22.8a10.1 10.1 0 0 0 19-6.5ZM172.4 73.6a24.6 24.6 0 1 1 0-49 24.6 24.6 0 0 1 0 49ZM201.3 387.1h12.3l5.8-47.2h-18.1V387Z"/>
    <path fill="#2F2E41" d="M198.2 399h39.5v-.5a15.4 15.4 0 0 0-15.4-15.4h-24.1v16Z"/>
    <path fill="#FFB8B8" d="M164.3 400.1h12.3l1.7-46.1-14-1.1V400Z"/>
    <path fill="#2F2E41" d="M161.2 412h39.5v-.5a15.4 15.4 0 0 0-15.4-15.4h-24.1v16ZM167.8 391.5l9.5-1.1a4.5 4.5 0 0 0 4-4.4l1.8-124.4a1.5 1.5 0 0 1 2.9-.4l13.3 37.4-1 70a4.5 4.5 0 0 0 4.2 4.6l12.5.5a4.5 4.5 0 0 0 4.7-3.9l6.5-79.3-9.8-82.8-74.2 5.3 20.6 174.6a4.5 4.5 0 0 0 5 4Z"/>
    <path fill="#004AAD" d="M216 215a4.5 4.5 0 0 0 2.4-3.6s-6.7-41.5-9.1-42.3l5.3-44.3a40.9 40.9 0 0 0-20.8-40.5 39 39 0 0 0-17.2-4.7 39.4 39.4 0 0 0-33.1 15.1 40.1 40.1 0 0 0-7.2 36.4l3 10.5v73a4.6 4.6 0 0 0 1.8 3.6 49.9 49.9 0 0 0 30.2 9.2A102 102 0 0 0 216 215Z"/>
    <path fill="#004AAD" d="m273.6 201.6 13-9.6a4.5 4.5 0 0 0 .5-6.7L210.3 103a15 15 0 0 0-24 2.7 15 15 0 0 0 2.5 18.2l79 77.5a4.5 4.5 0 0 0 5.8.3Z"/>
    <path fill="#FFB8B8" d="M174.9 190.7a10 10 0 0 0-14.7-4.6l-28.1-22-1.6 18.4 27 18.2a10.1 10.1 0 0 0 17.4-10Z"/>
    <path fill="#004AAD" d="M149.8 199.4a4.5 4.5 0 0 0 3-3.3l2.8-12a4.4 4.4 0 0 0-1.6-4.5l-19.1-20.7 28-43.3a15.2 15.2 0 1 0-25.8-15.6l-26 50.8a23.1 23.1 0 0 0 7.6 29.8l26.7 17.8a4.5 4.5 0 0 0 4.4 1Z"/>
    <path fill="#2F2E41" d="M154.2 71a4.4 4.4 0 0 0 6.5-2.5v-.1c.5-2 .2-4.2 0-6.3-.1-2 .1-4.4 1.6-6 2.6-2.8 7.4-1.2 11.2-2a9.5 9.5 0 0 0 7.2-11.4 7.3 7.3 0 0 1 7.7-8.8c3.9.2 8 1.4 11.3-1.4a8.4 8.4 0 0 0 2-9c-1.7-5.3-7-8.1-12-9.7a44.6 44.6 0 0 0-37.9 6 20 20 0 0 0-7.7 8.9c-1.4 3.7-.8 8.4 2.3 10.9a20.1 20.1 0 0 0-4.7 19.5c1.5 5 8.8 9.8 12.5 12Z"/>
    <path fill="#3F3D56" d="M0 411.8a1 1 0 0 0 1 1h381a1 1 0 0 0 0-2H1a1 1 0 0 0-1 1Z"/>
  </g>
  <defs>
    <clipPath id="a">
      <path fill="#fff" d="M0 0h641v413H0z"/>
    </clipPath>
  </defs>
</svg>