<svg xmlns="http://www.w3.org/2000/svg" width="500" height="500" version="1.0" viewBox="0 0 375 375">
  <defs>
    <clipPath id="a">
      <path d="M51.1 115.5H201v144H51.1Zm0 0"/>
    </clipPath>
    <clipPath id="b">
      <path d="M144 213h57v46.5h-57Zm0 0"/>
    </clipPath>
    <clipPath id="c">
      <path d="M158.4 142.4h150V247h-150Zm0 0"/>
    </clipPath>
  </defs>
  <g clip-path="url(#a)">
    <path fill="#004aad" d="m125.7 115.7.2-.2c.1 0 .2 0 .3.2l41.2 79.3c.3.5.6.7 1.1.8 11 1.8 21.4 5 31.2 9.5.5.3.5.4 0 .4a252.7 252.7 0 0 0-40.3 3.1c-16.7 3.1-32.4 8-47.1 14.5A359 359 0 0 0 51.5 259c-.2.2-.3.1-.2-.2l.8-2 7.3-13.7 66.3-127.4Zm0 42.9a289154.6 289154.6 0 0 0-21.8 42.2v.3h.4c12.7-4.2 25.8-6.5 39.3-7h.5l.2-.3v-.5a9917 9917 0 0 1-18.3-34.8c-.2-.1-.3 0-.4 0Zm0 0"/>
  </g>
  <g clip-path="url(#b)">
    <path fill="#004aad" d="m200.4 259.3-56-17.8c-.2 0-.3-.2-.2-.4l1.2-2a73.3 73.3 0 0 1 30.8-25.7.9.9 0 0 1 1 .4l23.6 45.1c.2.4 0 .6-.4.4Zm0 0"/>
  </g>
  <g clip-path="url(#c)">
    <path fill="#004aad" d="M248 142.5c-19 0-33.6 4.4-43.6 13.2a43 43 0 0 0-13.7 24.3h24.1c1.5-4.5 3.8-8.1 7-10.9 6-5.3 15.2-7.9 27.8-7.9h42.5l10.7-18.7ZM158.5 188l11.6 18.7h115.4v21.5h-41.5v-.1c-10.2-.5-18-3.4-23.2-8.7a23 23 0 0 1-3.5-4.6H192c2.4 7.7 6.4 14 12 19 9.8 8.8 23.5 13.2 41 13.2h63.3v-59Zm0 0"/>
  </g>
</svg>